<svg width="8" height="6" viewBox="0 0 8 6" fill="none" xmlns="http://www.w3.org/2000/svg">
<path d="M7.75002 0.877503C7.6095 0.737815 7.41941 0.659409 7.22127 0.659409C7.02313 0.659409 6.83304 0.737815 6.69252 0.877503L4.00002 3.5325L1.34502 0.877503C1.2045 0.737815 1.01441 0.659409 0.816272 0.659409C0.618133 0.659409 0.428044 0.737815 0.287523 0.877503C0.217226 0.947225 0.16143 1.03018 0.123354 1.12157C0.0852773 1.21296 0.0656738 1.31099 0.0656738 1.41C0.0656738 1.50901 0.0852773 1.60704 0.123354 1.69844C0.16143 1.78983 0.217226 1.87278 0.287523 1.9425L3.46752 5.1225C3.53724 5.1928 3.6202 5.2486 3.71159 5.28667C3.80298 5.32475 3.90101 5.34435 4.00002 5.34435C4.09903 5.34435 4.19706 5.32475 4.28846 5.28667C4.37985 5.2486 4.4628 5.1928 4.53252 5.1225L7.75002 1.9425C7.82032 1.87278 7.87611 1.78983 7.91419 1.69844C7.95227 1.60704 7.97187 1.50901 7.97187 1.41C7.97187 1.31099 7.95227 1.21296 7.91419 1.12157C7.87611 1.03018 7.82032 0.947225 7.75002 0.877503Z" fill="#F3F6F9"/>
</svg>
