<svg width="65" height="32" viewBox="0 0 65 32" fill="none" xmlns="http://www.w3.org/2000/svg">
<path fill-rule="evenodd" clip-rule="evenodd" d="M48.7039 27.1752C49.5337 27.3293 51.1418 27.7379 51.9304 27.9508C52.5853 27.1639 52.9927 26.2174 53.1056 25.2203L50.3429 17.4619L50.7269 19.3875C50.7269 21.012 50.8248 22.6929 50.6135 24.3052C50.4859 25.3346 50.1517 26.3312 49.6291 27.2412C49.3231 27.1953 49.0137 27.1732 48.7039 27.1752V27.1752ZM19.9616 14.6972L22.8608 13.5008V12.4243C22.8608 12.1307 22.8763 11.3722 22.6547 11.0199C22.5223 10.8177 22.3348 10.6532 22.1121 10.5438C21.8894 10.4344 21.6396 10.3842 21.3893 10.3984C21.0674 10.3875 20.7519 10.4865 20.5002 10.6773C20.3207 10.8297 20.1827 11.0211 20.0982 11.2352C19.9924 11.5999 19.9438 11.9775 19.9539 12.3557V14.6972H19.9616ZM19.5467 14.8489H14.2714H9.80786V12.757C9.80839 12.3463 9.76609 11.9365 9.68159 11.5337C9.60153 11.2571 9.42752 11.0134 9.18659 10.8405C8.94566 10.6675 8.6513 10.5749 8.34923 10.577C8.03493 10.5747 7.72963 10.6766 7.48595 10.8651C7.24227 11.0535 7.07547 11.3168 7.0143 11.6095C6.89347 12.3532 6.84344 13.1058 6.86483 13.858V21.5601C6.86483 22.5388 6.91379 22.6929 7.0143 23.0746C7.09929 23.3393 7.27629 23.5688 7.51641 23.7257C7.75653 23.8825 8.04557 23.9575 8.33634 23.9382C8.62556 23.95 8.91146 23.876 9.15437 23.7265C9.39728 23.577 9.58514 23.3594 9.69189 23.1039C9.84394 22.6782 9.80529 22.5363 9.80529 21.6188V19.0376H13.9647C13.7896 19.7776 13.6836 20.5308 13.6477 21.2885C13.6905 20.8817 13.7611 20.478 13.8591 20.0799C13.9412 19.7256 14.0523 19.3779 14.1915 19.04V19.04C14.3839 18.597 14.637 18.1799 14.944 17.7996C15.8896 16.6852 17.1164 15.8158 18.5107 15.2722L19.5415 14.8489H19.5467ZM58.6747 30.1259C60.1153 30.6715 61.4888 31.244 62.7851 31.8385C61.409 31.3737 59.9503 30.9137 58.435 30.4708C56.162 29.8078 53.7395 29.179 51.1934 28.6236H51.1547L50.8274 28.5527L50.4924 28.4817H50.4537L50.3919 28.4695H50.3558L50.1342 28.423H50.0955L50.0337 28.4083H49.9924H49.9564H49.9177H49.879L49.7296 28.3765H49.6909H49.6523H49.6007H49.5646C49.3069 28.3251 49.075 28.2786 48.8276 28.2297C43.0262 27.0905 37.1192 26.5061 31.1951 26.4852C22.5675 26.4737 13.9907 27.7409 5.77472 30.2409V30.2409L5.59947 30.2947C5.22064 30.4097 4.84439 30.5393 4.47329 30.647H4.45525C4.3367 30.6837 4.22073 30.7204 4.10734 30.7595C2.80591 31.1804 1.54313 31.6257 0.321592 32.0832C1.22873 31.6624 2.18741 31.244 3.19247 30.8378C4.77738 30.1944 7.20242 29.3478 8.82857 28.7998C7.94978 28.9466 5.33919 29.6218 4.39597 29.8616C2.94705 29.3515 1.76526 28.3243 1.10245 26.999C0.435843 25.7496 0.102539 23.9105 0.102539 21.4818V13.4347C0.102539 10.6504 0.597341 8.62948 1.60241 7.38168C2.77756 5.91368 4.97324 5.06225 7.93947 5.06225C9.56819 5.06225 11.032 5.22128 12.4056 5.74242C13.2663 6.07027 14.5626 6.91192 14.9389 7.80006C14.7345 8.29898 14.5876 8.81743 14.5007 9.34635C14.7897 8.61186 15.2313 7.94006 15.7993 7.37093C16.3673 6.80181 17.0502 6.347 17.8072 6.03357C19.1049 5.5465 20.4861 5.29103 21.8815 5.28C22.9284 5.2779 23.97 5.41964 24.974 5.70082C25.7738 5.91006 26.5143 6.28622 27.1414 6.80182L26.5409 8.21599C26.7979 7.70287 27.1466 7.23597 27.5717 6.83608C27.9347 6.49427 28.3479 6.20418 28.7984 5.97485C29.5079 5.64253 30.2814 5.45105 31.0714 5.41212C32.177 5.33627 33.3264 5.41212 35.1175 6.25377C35.1175 5.0965 35.1329 4.13496 35.0917 3.16608C35.045 2.25454 34.9166 1.34844 34.7077 0.457626H41.4906V6.32962C42.7736 5.67485 44.2039 5.32321 45.6604 5.30446C46.6308 5.29129 47.5844 5.54631 48.405 6.03846L46.5469 6.31983H54.0668C54.4225 9.88462 55.2884 12.8842 56.0692 16.3511C56.9583 12.7399 56.8243 10.095 57.0408 6.33206H64.2231C63.7077 7.87591 63.7386 9.48581 63.4938 11.1324C62.9372 14.8905 62.3238 18.8345 61.2286 22.5755C60.5622 24.9807 59.7236 27.3399 58.7185 29.6365C57.7366 29.3111 55.4481 28.8316 54.1287 28.582C55.7187 29.0713 57.2418 29.5851 58.6979 30.1332L58.6747 30.1259ZM22.8531 18.0247C22.2681 18.3403 21.4847 18.7269 20.928 19.0645C19.8972 19.6835 19.8972 20.9925 19.8972 22.0543C19.8972 22.4458 19.8972 22.8984 20.1214 23.1945C20.1999 23.362 20.3233 23.5071 20.4793 23.6153C20.6353 23.7235 20.8185 23.791 21.0105 23.811C21.8712 23.811 22.2604 23.5199 22.8454 22.9596V18.0247H22.8531ZM31.9605 20.0529C31.9605 21.0732 31.9915 22.688 32.4141 23.2899C32.5225 23.4565 32.6744 23.5937 32.8549 23.6884C33.0355 23.7832 33.2387 23.8321 33.4449 23.8306C33.9574 23.8318 34.4587 23.6887 34.8855 23.4196V11.245C34.7616 11.0663 34.6054 10.9097 34.4242 10.7825C34.1432 10.6367 33.8234 10.5721 33.5042 10.5966C33.2878 10.6149 33.0785 10.6797 32.8923 10.7861C32.7062 10.8925 32.5479 11.0377 32.4296 11.2107C32.0788 11.834 31.9114 12.5355 31.9451 13.2414C31.9451 15.5119 31.9451 17.7824 31.9451 20.0529H31.9605ZM44.4053 14.0048C44.4053 13.1509 44.3125 12.0475 44.0703 11.4627C43.9769 11.198 43.7961 10.969 43.5549 10.8095C43.2994 10.6667 43.0086 10.5907 42.7122 10.5893C42.3795 10.5954 42.0599 10.7133 41.8102 10.922C41.6864 11.0446 41.5838 11.185 41.5061 11.3379V23.4342C41.9253 23.7033 42.42 23.8466 42.9261 23.8453C43.1589 23.8566 43.3901 23.8017 43.5898 23.6875C43.7895 23.5733 43.9488 23.405 44.0471 23.2042C44.346 22.3944 44.4156 20.3588 44.4156 19.5636L44.4053 14.0048Z" fill="#F3F6F9"/>
</svg>
