<svg width="65" height="50" viewBox="0 0 65 50" fill="none" xmlns="http://www.w3.org/2000/svg">
<path fill-rule="evenodd" clip-rule="evenodd" d="M53.3573 16.9347C53.6834 16.9347 53.862 17.1163 53.862 17.2677V37.1354C53.862 37.302 53.6632 37.509 53.3573 37.5172C53.051 37.5232 52.8582 37.2938 52.8582 37.1354V17.2675C52.8582 17.1376 53.031 16.9347 53.3573 16.9347ZM51.5215 17.2675C51.5215 16.4524 52.3868 15.5966 53.3833 15.5966C54.3798 15.5966 55.2653 16.4655 55.2653 17.2675V37.1353C55.2653 38.1992 54.3397 38.8713 53.3574 38.8713C52.3748 38.8713 51.5217 38.2296 51.5217 37.1353V17.2675H51.5215ZM42.8306 17.2675C42.8306 16.4686 43.7437 15.5966 44.7071 15.5966C45.6685 15.5966 46.5748 16.4401 46.5748 17.2675V22.4217H45.1708V17.2675C45.1708 17.1183 44.8968 16.9345 44.7071 16.9345C44.5164 16.9345 44.2355 17.1183 44.2355 17.2675V37.2549C44.2355 37.4601 44.5064 37.6367 44.7071 37.6367C44.9068 37.6367 45.1708 37.4783 45.1708 37.2549V31.3059H46.5748V37.2549C46.5748 38.3312 45.6837 38.991 44.7071 38.991C43.7298 38.991 42.8306 38.3169 42.8306 37.2549V17.2675ZM34.274 17.2675C34.274 16.4076 35.049 15.5966 36.0151 15.5966C36.9815 15.5966 37.863 16.3692 37.863 17.2675V22.4217H36.4406V17.2675C36.4406 17.1132 36.2691 16.9345 36.0455 16.9345C35.8438 16.9345 35.6109 17.1202 35.6109 17.2675V21.0674C35.6109 22.4217 36.2924 24.6003 36.8422 26.4841C37.3923 28.3699 37.9493 30.8205 37.9493 32.1707V37.2549C37.9493 38.4204 37.0702 38.991 36.0936 38.991C35.1173 38.991 34.2742 38.3454 34.2742 37.2549V31.3059H35.6109V37.2549C35.6109 37.4438 35.8085 37.6367 36.0935 37.6367C36.3795 37.6367 36.5461 37.4519 36.5461 37.2549V32.1707C36.5461 30.8205 35.9029 28.2765 35.387 26.4841C34.8712 24.6917 34.274 22.4217 34.274 21.0674V17.2675ZM26.1856 15.5966H29.2686V16.83H27.7893V25.9086H29.2686V27.1925H27.7893V37.6918H29.8276V38.9911H26.1856V15.5966ZM17.4944 15.5966H19.0802L20.0356 26.4843V15.5966H21.2377V38.9911H20.0356L18.6306 25.0634V38.9911H17.4946V15.5966H17.4944ZM8.80353 15.5966H10.2366L10.2527 37.2549C10.2527 37.4683 10.4344 37.6367 10.6832 37.6367C10.9029 37.6367 11.0957 37.4683 11.0957 37.2549L11.0795 15.5966H12.5478L12.5639 37.2549C12.5639 38.3189 11.6998 38.991 10.6923 38.991C9.6848 38.991 8.81953 38.3454 8.81953 37.2549L8.80353 15.5966ZM0 47.8518H64.1026V50H0V47.8518ZM2.89545 43.9494H61.2335V46.2276H2.89545V43.9494ZM5.88206 40.1789H58.359V42.457H5.88206V40.1789ZM5.88206 12.4505H58.359V14.6474H5.88206V12.4505ZM10.2766 10.6196L32.0483 3.81866L53.5097 10.6196H47.2001L32.0483 5.8735L16.6584 10.6196H10.2766ZM5.88206 8.20282L32.0485 0L58.3592 8.20282V10.6196L32.0485 2.56343L5.88206 10.6196V8.20282Z" fill="#F3F6F9"/>
</svg>
