<svg width="52" height="50" viewBox="0 0 52 50" fill="none" xmlns="http://www.w3.org/2000/svg">
<g clip-path="url(#clip0_619_369)">
<path fill-rule="evenodd" clip-rule="evenodd" d="M19.9557 19.4316C19.9705 19.2159 19.9705 18.9995 19.9557 18.7837C19.8772 18.2586 20.0932 18.1162 20.6134 18.1211C22.454 18.1506 24.2995 18.1211 26.145 18.1211H38.4155C38.9849 19.3187 38.6757 19.8586 37.3406 19.8734C34.2043 19.9028 31.0679 19.8734 27.9316 19.8734C27.6224 19.8734 27.3132 19.8734 27.0089 19.8734C26.253 19.8194 25.9781 20.158 25.983 20.9041C25.983 23.0539 25.983 25.2086 25.983 27.3584C25.983 27.6971 25.983 28.0357 25.983 28.3744C25.8996 29.4542 25.4922 29.7242 24.4713 29.356C24.3209 29.3279 24.1795 29.2639 24.059 29.1695L24.0296 20.158C23.7007 19.6672 23.1952 19.6672 22.7043 19.6672C21.7814 19.7541 20.8504 19.6743 19.9557 19.4316Z" fill="#F3F6F9"/>
<path fill-rule="evenodd" clip-rule="evenodd" d="M35.8437 27.9327C36.1924 27.8624 36.5019 27.6631 36.7102 27.3747C36.9185 27.0863 37.0105 26.73 36.9676 26.3768C36.9676 25.0319 36.9676 23.6821 36.9676 22.3324C36.9676 22.0968 36.8057 21.66 37.213 21.6796C37.6204 21.6992 38.1947 21.2673 38.4401 21.9986C38.533 22.1214 38.6004 22.2615 38.6384 22.4107C38.6763 22.5599 38.684 22.7152 38.661 22.8674C38.661 24.0012 38.7051 25.135 38.661 26.2688C38.5334 29.1057 36.0498 30.5095 33.5908 29.1155C33.4024 28.9938 33.1798 28.9361 32.956 28.9511C32.7323 28.9662 32.5193 29.0531 32.349 29.199C31.7411 29.6051 31.005 29.7735 30.281 29.6721C29.557 29.5708 28.8955 29.2067 28.4224 28.6493C27.912 27.9336 27.6421 27.0742 27.6518 26.1951C27.6518 24.973 27.6911 23.741 27.6518 22.5336C27.6175 21.817 27.8285 21.552 28.55 21.6501C28.7019 21.6624 28.8546 21.6624 29.0065 21.6501C29.7526 23.0392 29.3697 24.5411 29.4384 25.9988C29.4116 26.3189 29.4597 26.6408 29.579 26.939C29.6983 27.2372 29.8854 27.5035 30.1256 27.7167C30.2607 27.8636 30.4389 27.9641 30.6346 28.0038C30.8303 28.0435 31.0335 28.0203 31.2152 27.9376C31.5596 27.8482 31.8609 27.639 32.0651 27.3476C32.2693 27.0562 32.3629 26.7015 32.3294 26.3473C32.3637 25.243 32.3294 24.1337 32.3294 23.0293C32.3294 21.6109 32.3294 21.6109 33.738 21.6747C33.8755 21.8401 33.9763 22.0329 34.0339 22.2401C34.0914 22.4474 34.1043 22.6646 34.0718 22.8772C34.0718 24.011 34.0325 25.1497 34.1012 26.2786C34.0988 26.5041 34.1428 26.7276 34.2307 26.9353C34.3185 27.143 34.4483 27.3303 34.6118 27.4855C34.7754 27.6407 34.9692 27.7606 35.1811 27.8375C35.3931 27.9145 35.6186 27.9468 35.8437 27.9327Z" fill="#F3F6F9"/>
<path fill-rule="evenodd" clip-rule="evenodd" d="M43.7803 29.3806C43.4612 29.3266 43.2305 29.2431 43.2355 28.8161C43.2698 27.4713 43.1667 26.1166 43.2796 24.7816C43.5201 21.8367 45.8614 20.6734 48.5707 22.0477C49.8615 22.6612 50.0088 23.8785 50.1217 25.0761C50.21 26.0577 50.1511 27.0394 50.1217 28.021C50.1217 29.5769 49.8468 29.7536 48.3793 29.2235C48.3793 27.8541 48.3793 26.4798 48.3793 25.1104C48.4408 24.7472 48.3786 24.3739 48.2026 24.0503C48.0426 23.8605 47.8558 23.6951 47.6479 23.5594C46.3129 22.7398 45.0859 23.3386 44.9877 24.8945C44.9092 26.1412 45.0122 27.3977 44.9435 28.6443C44.8993 29.5524 44.6048 29.7094 43.7803 29.3806Z" fill="#F3F6F9"/>
<path fill-rule="evenodd" clip-rule="evenodd" d="M1.28484 28.7131C0.3621 27.8394 0.283568 26.6712 0.229578 25.5227C0.180496 24.5754 0.229578 23.6232 0.229578 22.676C0.229578 21.5176 0.489713 21.3704 1.70204 21.8219C1.91015 22.1645 1.99338 22.5686 1.93764 22.9655C1.93764 23.7312 1.98181 24.4969 1.93764 25.2577C1.88167 25.7741 1.9608 26.2963 2.1673 26.7729C2.3738 27.2496 2.70057 27.6644 3.11561 27.9768C3.38588 28.0477 3.669 28.0542 3.94222 27.9957C4.21545 27.9373 4.47116 27.8156 4.68883 27.6404C4.90649 27.4653 5.08003 27.2415 5.19551 26.9871C5.31099 26.7326 5.36519 26.4547 5.35376 26.1755C5.3832 24.9828 5.42247 23.7852 5.35376 22.5974C5.29486 21.7679 5.56972 21.498 6.3354 21.6158C6.48841 21.6354 6.64251 21.6452 6.79677 21.6452C6.86023 21.6897 6.91329 21.7473 6.95227 21.8143C6.99126 21.8812 7.01523 21.9559 7.02255 22.033C7.10599 23.8098 7.37594 25.6111 6.80168 27.3437C6.63209 27.8894 6.32463 28.3821 5.90901 28.7743C5.49339 29.1665 4.98365 29.4448 4.42903 29.5825C3.87442 29.7202 3.29367 29.7125 2.7429 29.5602C2.19212 29.4079 1.68994 29.1161 1.28484 28.7131Z" fill="#F3F6F9"/>
<path fill-rule="evenodd" clip-rule="evenodd" d="M13.5113 29.1892C13.5113 28.0946 13.5113 27.0001 13.5113 25.9056C13.5409 25.2184 13.4529 24.5312 13.2511 23.8736C11.2878 22.4944 9.91355 23.4858 10.0412 25.6552C10.0953 26.6361 10.0953 27.6193 10.0412 28.6002C10.0412 29.0566 9.98226 29.6162 9.31474 29.518C8.82392 29.4444 8.3331 29.3119 8.38218 28.5364C8.48035 27.1032 8.34292 25.6602 8.4509 24.227C8.94172 22.1753 9.89882 21.4882 12.3775 21.4538C12.756 21.4504 13.1302 21.5345 13.4708 21.6997C13.8114 21.8649 14.1091 22.1066 14.3408 22.406C14.9304 23.1253 15.2499 24.0282 15.2439 24.9583C15.288 26.0037 15.2733 27.0492 15.2439 28.0897C15.2193 29.4493 14.8463 29.6849 13.5113 29.1892Z" fill="#F3F6F9"/>
<path fill-rule="evenodd" clip-rule="evenodd" d="M24.0344 29.1892C24.2455 29.2235 24.4565 29.253 24.6627 29.302C25.4529 29.4689 25.6443 29.1253 25.6443 28.3695C25.6051 25.6994 25.6443 23.0293 25.6149 20.3593C25.6149 19.7163 25.8063 19.5249 26.4444 19.5298C30.0077 19.5592 33.5662 19.5298 37.1246 19.5298C38.4744 19.5298 38.4744 19.5298 38.4204 18.1408C39.3039 18.2537 39.2106 18.9015 39.1861 19.52C39.1861 20.2218 38.656 20.1188 38.2044 20.1728C34.8325 20.5458 31.4556 20.2464 28.0788 20.3347C26.7143 20.3691 26.6358 20.4231 26.6358 21.8072C26.6358 23.9619 26.6358 26.1166 26.6358 28.2664C26.6358 28.9683 26.8517 29.7683 25.8357 30.0775C24.8737 30.3868 24.4909 29.7438 24.0344 29.1892Z" fill="#CDE4D1"/>
<path fill-rule="evenodd" clip-rule="evenodd" d="M28.4519 28.6493C29.2993 29.2709 30.3561 29.5368 31.3968 29.3904C32.0938 29.2628 32.5601 28.4088 33.1 28.5069C33.6399 28.6051 34.1111 29.2382 34.759 29.3806C36.7517 29.8076 38.3272 28.5118 38.4303 26.3228C38.4843 25.189 38.4303 24.0552 38.4303 22.9165C38.4303 22.6122 38.4303 22.3078 38.4598 21.9986C38.9506 21.817 39.1665 22.0428 39.1665 22.4894C39.1665 24.4871 39.1665 26.4847 39.1665 28.4775C39.1665 29.2088 37.7284 30.269 36.7713 30.3033C35.9222 30.3033 35.0584 30.426 34.3172 29.8125C33.8264 29.4051 33.3356 29.7438 32.8448 29.9548C32.1656 30.2795 31.4045 30.3923 30.6605 30.2785C29.9164 30.1647 29.2238 29.8296 28.6728 29.3168C28.5876 29.2297 28.5234 29.1243 28.4851 29.0086C28.4468 28.8929 28.4355 28.77 28.4519 28.6493Z" fill="#CAE1CE"/>
<path fill-rule="evenodd" clip-rule="evenodd" d="M40.1089 29.1892C40.1089 26.9019 40.1089 24.6098 40.1089 22.3177C40.1089 22.0821 39.9567 21.6452 40.369 21.6796C40.7813 21.714 41.3506 21.2722 41.5813 22.0084C41.8142 22.376 41.9082 22.8146 41.8464 23.2453C41.8464 24.8699 41.8464 26.4995 41.8464 28.1535C41.8415 29.6751 41.5224 29.8665 40.1089 29.1892Z" fill="#F3F6F9"/>
<path fill-rule="evenodd" clip-rule="evenodd" d="M18.0955 21.655C19.1754 22.087 19.2637 22.9705 19.2244 23.9815C19.1704 25.454 19.1754 26.9854 19.2244 28.4873C19.2539 29.307 19.0772 30.0039 18.2772 30.2739C17.4771 30.5438 17.1237 29.7831 16.7065 29.2922C16.6592 29.2135 16.626 29.1271 16.6084 29.037C16.1714 27.8945 16.1714 26.6309 16.6084 25.4884C16.6084 24.5067 16.6084 23.4809 16.6084 22.4796C16.6084 22.195 16.4807 21.8612 16.8047 21.6452C17.0504 22.0056 17.1472 22.4471 17.0746 22.8772C17.0746 24.5362 17.0746 26.1951 17.0746 27.859C17.0746 28.2124 16.9372 28.8407 17.4967 28.7916C17.9287 28.7916 17.7765 28.1879 17.7765 27.8541C17.7765 26.1902 17.7765 24.5313 17.7765 22.8723C17.7246 22.4408 17.8386 22.0056 18.0955 21.655Z" fill="#CDE1D1"/>
<path fill-rule="evenodd" clip-rule="evenodd" d="M1.28491 28.7131C1.99437 29.2023 2.83804 29.4595 3.69975 29.4493C4.41067 29.4485 5.09794 29.1939 5.63784 28.7314C6.17773 28.2689 6.53477 27.6288 6.64468 26.9265C6.97354 25.1939 6.75267 23.4367 6.78211 21.6894C7.04216 21.7803 7.2633 21.9574 7.40882 22.1914C7.55435 22.4253 7.61551 22.7019 7.58215 22.9754C7.5527 24.2908 7.58215 25.6013 7.58215 26.9019C7.51344 29.4837 5.61887 30.8285 3.07641 30.2248C2.669 30.1584 2.28723 29.9827 1.97176 29.7165C1.65628 29.4503 1.4189 29.1035 1.28491 28.7131Z" fill="#C9E1CD"/>
<path fill-rule="evenodd" clip-rule="evenodd" d="M8.46071 24.2417C8.46071 25.7141 8.46071 27.1866 8.43126 28.6591C8.40672 29.3364 8.80919 29.2726 9.24602 29.3217C9.82519 29.3904 9.80556 29.0419 9.80556 28.6493C9.80556 27.3289 9.80556 26.0086 9.83992 24.6932C9.82496 24.287 9.95499 23.8886 10.2068 23.5694C10.4585 23.2502 10.8156 23.0309 11.2142 22.9508C12.0977 22.7594 12.8585 22.9508 13.2659 23.8785C12.6818 24.0355 12.029 23.4367 11.4694 24.1092C11.1074 24.5159 10.9006 25.0373 10.8854 25.5816C10.851 26.7449 11.0032 27.9081 10.7627 29.0714C10.7353 29.3499 10.6017 29.6073 10.3897 29.79C10.1777 29.9728 9.90352 30.067 9.62396 30.053C9.33845 30.0403 9.064 29.939 8.83879 29.763C8.61358 29.5871 8.44883 29.3453 8.36745 29.0714C8.29874 27.486 8.05824 25.8418 8.46071 24.2417Z" fill="#CBE2CF"/>
<path fill-rule="evenodd" clip-rule="evenodd" d="M18.0955 21.6551C18.0955 23.9881 18.1135 26.3195 18.1495 28.6493C18.1495 29.0566 18.1495 29.3757 17.5801 29.3217C17.1335 29.2775 16.7703 29.3217 16.785 28.6542C16.8341 26.3228 16.8193 23.9914 16.8292 21.66L18.0955 21.6551Z" fill="#F3F6F9"/>
<path fill-rule="evenodd" clip-rule="evenodd" d="M43.7802 29.3806C44.4821 29.41 44.7619 29.1646 44.7275 28.3989C44.6441 27.1768 44.6834 25.9448 44.7275 24.7129C44.7216 24.2911 44.8668 23.8811 45.1369 23.557C45.407 23.2329 45.784 23.0162 46.2 22.9459C47.1522 22.7692 47.7903 23.1275 48.2222 24.0797C46.5387 23.5889 45.6601 24.2368 45.6454 26.043C45.6454 27.0541 45.6797 28.0701 45.6208 29.0763C45.5914 29.6113 45.346 30.1217 44.6981 30.161C44.1876 30.1561 43.741 30.0383 43.7802 29.3806Z" fill="#D0E5D4"/>
<path fill-rule="evenodd" clip-rule="evenodd" d="M48.3988 29.2235C48.6688 29.253 48.9436 29.2677 49.2136 29.307C49.6553 29.3708 49.8124 29.1892 49.8075 28.7474C49.8075 27.3731 49.8075 25.9988 49.8075 24.6245C49.752 23.64 49.3154 22.7158 48.5902 22.0477C48.9451 22.0601 49.2892 22.1734 49.5821 22.3741C49.875 22.5749 50.1047 22.855 50.2443 23.1815C50.7752 23.9777 51.0446 24.9196 51.0149 25.8761C50.9314 26.8185 51.0149 27.7805 51.0149 28.7327C51.0149 29.2235 51.0591 29.7536 50.5241 29.8812C49.9891 30.0088 49.3117 30.2052 48.8258 29.6064C48.6589 29.4493 48.5215 29.3511 48.3988 29.2235Z" fill="#CAE3CF"/>
<path fill-rule="evenodd" clip-rule="evenodd" d="M40.1089 29.1892L40.7371 29.302C41.3605 29.4297 41.5912 29.2333 41.5814 28.5511C41.547 26.3718 41.5814 24.1877 41.5814 22.0084C42.2587 22.0084 42.4796 22.406 42.4746 23.0244C42.4746 25.0466 42.4746 27.0688 42.4746 29.091C42.5113 29.3198 42.4659 29.5541 42.3465 29.7526C42.227 29.9512 42.0412 30.101 41.8219 30.1757C41.6053 30.2539 41.3695 30.2608 41.1487 30.1955C40.928 30.1301 40.7339 29.9959 40.5948 29.8125C40.4223 29.6131 40.2601 29.4051 40.1089 29.1892Z" fill="#C7E0CC"/>
<path fill-rule="evenodd" clip-rule="evenodd" d="M16.6083 25.5227V29.0714C16.2157 29.3021 16.1175 29.7487 15.8329 30.053C15.7188 30.2365 15.542 30.3725 15.3353 30.4357C15.1287 30.4989 14.9061 30.485 14.7089 30.3966C14.2819 30.2052 13.7272 30.1512 13.8401 29.464C14.0659 29.145 14.2769 29.4248 14.4782 29.464C15.1212 29.6653 15.4304 29.4002 15.4598 28.772C15.5221 27.4013 15.509 26.0282 15.4206 24.6589C15.3939 24.1968 15.2547 23.7483 15.0152 23.3522C14.7757 22.9562 14.4431 22.6246 14.0463 22.3864C13.5546 21.9727 12.9857 21.6607 12.3726 21.4685C12.7848 21.408 13.205 21.4309 13.6081 21.5361C14.0113 21.6412 14.3892 21.8263 14.7194 22.0805C15.0495 22.3346 15.3252 22.6526 15.53 23.0154C15.7348 23.3783 15.8645 23.7786 15.9114 24.1926C15.9673 24.7081 16.2163 25.1834 16.6083 25.5227Z" fill="#C3DEC8"/>
<path fill-rule="evenodd" clip-rule="evenodd" d="M35.8437 27.9327C34.6657 28.2566 33.8215 27.6284 33.792 26.3571C33.7577 24.7963 33.7675 23.2306 33.7626 21.6698C34.7442 22.0575 34.8277 22.9066 34.8571 23.7754C34.8964 24.757 34.8964 25.7387 34.9111 26.7203C34.9258 27.3388 35.1025 27.8541 35.8437 27.9327Z" fill="#D0E5D5"/>
<path fill-rule="evenodd" clip-rule="evenodd" d="M14.0413 22.3864C14.5318 22.5543 14.9564 22.8731 15.2545 23.2972C15.5525 23.7213 15.7086 24.2289 15.7003 24.7472C15.7003 26.097 15.7003 27.4517 15.7003 28.8063C15.7003 29.1646 15.7739 29.572 15.3371 29.788C15.1483 29.8944 14.928 29.9306 14.7151 29.8902C14.5022 29.8498 14.3105 29.7353 14.1739 29.5671C14.1101 29.4984 13.953 29.5082 13.8352 29.4837C13.7174 29.4591 13.5162 29.4248 13.5063 29.2137C14.9297 29.4493 14.9297 29.4493 14.9297 28.0259C14.9297 27.1424 14.9003 26.259 14.9297 25.3755C14.9941 24.3057 14.6796 23.2474 14.0413 22.3864Z" fill="#C3DEC8"/>
<path fill-rule="evenodd" clip-rule="evenodd" d="M31.22 27.9327C30.0372 28.2664 29.1733 27.6676 29.1291 26.4062C29.085 25.1448 29.1291 23.9521 29.1291 22.7398C29.1291 22.3717 29.0702 22.0084 29.0359 21.6452C30.6949 22.6269 30.0421 24.2613 30.0764 25.6552C30.0764 26.1461 30.1353 26.6811 30.1795 27.1866C30.209 27.7756 30.6605 27.9768 31.22 27.9327Z" fill="#CEE4D3"/>
<path fill-rule="evenodd" clip-rule="evenodd" d="M3.1157 27.9768C2.10461 27.7756 1.71686 27.0394 1.67759 26.1215C1.63342 24.6883 1.67759 23.2551 1.67759 21.8219C2.38437 22.0232 2.5758 22.514 2.59052 23.211C2.59052 24.4233 2.40401 25.6651 2.73777 26.8529C2.86047 27.2357 2.9979 27.6038 3.1157 27.9768Z" fill="#CCE2D0"/>
<path fill-rule="evenodd" clip-rule="evenodd" d="M41.5077 18.1604C41.653 18.1336 41.8026 18.14 41.9451 18.1792C42.0877 18.2183 42.2196 18.2891 42.3309 18.3863C42.4423 18.4835 42.5303 18.6046 42.5883 18.7406C42.6463 18.8765 42.6729 19.0238 42.666 19.1715C42.7104 19.4188 42.6583 19.6736 42.5204 19.8836C42.3825 20.0936 42.1694 20.2428 41.9249 20.3004C41.3261 20.4476 40.6684 20.4378 40.4524 19.6181C40.7773 19.5485 41.0649 19.361 41.2598 19.0918C41.4546 18.8226 41.5429 18.4908 41.5077 18.1604Z" fill="#D4E7D7"/>
<path fill-rule="evenodd" clip-rule="evenodd" d="M19.9557 19.4316C21.1042 19.4316 22.2576 19.5003 23.3914 19.5003C23.8823 19.5003 24.162 19.623 23.9902 20.1777C23.4454 20.1777 22.8908 20.1286 22.3509 20.1777C21.4856 20.2526 20.6254 19.9847 19.9557 19.4316Z" fill="#C6D3C8"/>
<path fill-rule="evenodd" clip-rule="evenodd" d="M18.0956 18.1604C18.234 18.1437 18.3745 18.1566 18.5075 18.1984C18.6405 18.2402 18.7632 18.3098 18.8672 18.4027C18.9712 18.4956 19.0543 18.6096 19.1108 18.737C19.1673 18.8645 19.196 19.0026 19.195 19.142C19.2305 19.3866 19.1785 19.6359 19.0484 19.8459C18.9182 20.056 18.7181 20.2134 18.4833 20.2906C17.7667 20.5802 17.3348 20.2366 17.0109 19.6378C17.3472 19.5787 17.6477 19.3921 17.8498 19.1168C18.0519 18.8416 18.1399 18.499 18.0956 18.1604Z" fill="#D4E6D7"/>
<path fill-rule="evenodd" clip-rule="evenodd" d="M18.0956 18.1604C18.5226 19.3089 18.233 19.6967 17.006 19.6329C16.6378 19.2451 16.4317 18.8132 16.7851 18.3273C17.1385 17.8414 17.6244 17.8954 18.0956 18.1604Z" fill="#F3F6F9"/>
<path fill-rule="evenodd" clip-rule="evenodd" d="M41.5077 18.1604C41.9249 19.2647 41.6452 19.6329 40.4574 19.6329C40.05 19.2402 39.7948 18.7985 40.2022 18.2782C40.6095 17.7579 41.0513 17.8855 41.5077 18.1604Z" fill="#F3F6F9"/>
<path d="M49.6357 32.2077C49.4871 32.145 49.3274 32.1129 49.1662 32.1131C49.0049 32.1134 48.8454 32.1461 48.697 32.2093C48.5486 32.2725 48.4145 32.3649 48.3025 32.481C48.1906 32.5971 48.1032 32.7345 48.0454 32.8851C46.8557 35.8966 45.0977 38.651 42.8673 40.9983C42.6464 41.229 42.4844 41.5186 42.1948 41.0572C41.3996 39.8382 40.2885 38.8577 38.98 38.2203C38.4057 37.9307 38.5235 37.6755 38.8229 37.2386C39.8046 35.8263 40.6775 34.3414 41.4341 32.7967C41.5273 32.6151 41.8071 32.3844 41.4635 32.1881C41.1539 32.0978 40.8245 32.1013 40.517 32.1983C40.2094 32.2953 39.9376 32.4813 39.7358 32.7329C39.0393 34.068 38.2624 35.3596 37.4093 36.6006C37.3596 36.7091 37.2884 36.8065 37.1998 36.8866C37.1113 36.9667 37.0073 37.0279 36.8943 37.0665C36.7813 37.1051 36.6616 37.1202 36.5426 37.111C36.4235 37.1018 36.3076 37.0684 36.2019 37.0129C33.4033 36.1625 30.498 35.7146 27.5733 35.6827C27.1119 35.6827 26.6456 35.6484 26.1891 35.6827C25.5903 35.7367 25.4529 35.4766 25.4971 34.9318C25.5413 34.2888 25.4971 33.6409 25.5265 32.9685C25.5609 32.409 25.4382 32.1341 24.7854 32.139C24.1326 32.1439 23.9657 32.3157 24.005 32.9243C24.0492 33.6605 23.9755 34.3968 24.005 35.1379C24.005 35.6287 23.8577 35.7662 23.3865 35.8103C22.2224 35.8891 21.0638 36.0349 19.9164 36.2472C19.2587 36.3797 19.1262 36.1245 19.0281 35.5944C18.8514 34.6127 18.6109 33.6802 18.4391 32.7133C18.2771 31.8347 17.6096 32.1341 17.1335 32.1685C16.6574 32.2028 16.8439 32.6593 16.8881 32.9538C16.9911 33.5918 17.1286 34.2201 17.266 34.8532C17.4034 35.4864 17.7568 36.1294 17.6096 36.6251C17.4132 37.1994 16.52 37.1503 15.9702 37.4546C15.9142 37.4804 15.8569 37.5034 15.7984 37.5233C15.4401 37.6509 15.396 37.8325 15.5285 38.2203C15.823 39.0694 16.304 39.0989 17.001 38.7111C17.6979 38.3234 18.1397 38.2203 18.4293 39.2608C19.0193 41.5237 19.9671 43.6777 21.2367 45.6415C23.4062 48.8858 22.5423 48.7582 26.3069 47.3986C30.5771 45.9065 34.0717 43.1432 36.9872 39.6829C37.1835 39.4522 37.3062 39.0596 37.7823 39.3148C38.9764 39.8853 40.0215 40.7254 40.8353 41.7689C41.2426 42.3235 41.1936 42.7064 40.634 43.1383C38.9062 44.5263 37.0035 45.6815 34.9748 46.5741C32.2043 47.7552 29.2301 48.3854 26.2186 48.4294C25.3989 48.4294 25.5756 48.9202 25.5265 49.411C25.4627 50 25.7474 50.0196 26.2235 50.0098C28.6449 49.9479 31.0462 49.5532 33.36 48.8368C39.6916 46.8735 44.2857 42.7457 47.643 37.1405C48.4857 35.7807 49.1723 34.3301 49.6897 32.8163C49.778 32.6298 50.0283 32.3942 49.6357 32.2077ZM23.0871 45.7397C21.6323 43.4165 20.4949 40.909 19.7054 38.2841C19.5876 37.9111 19.8134 37.8473 20.0588 37.7933C21.1419 37.6264 22.2298 37.4628 23.3227 37.3024C23.6369 37.2632 23.8626 37.3466 23.8479 37.7393C23.76 40.4192 23.5059 43.0912 23.0871 45.7397ZM24.6087 46.417C24.8099 44.5911 25.0161 42.8684 25.183 41.1407C25.286 40.0412 25.3449 38.9369 25.4136 37.8325C25.4136 37.4104 25.5658 37.165 26.0713 37.1748C29.3304 37.2583 32.5698 37.4546 35.8878 38.5344C32.911 42.1345 29.0126 44.8589 24.6087 46.417Z" fill="#F3F6F9"/>
<path d="M25.5118 12.3638C25.5118 12.0153 25.6983 11.5932 24.9768 11.5785C23.5039 11.5669 22.0345 11.4323 20.584 11.176C18.4342 10.7588 18.4489 10.7686 18.9544 8.64337C19.6561 5.50541 21.0292 2.55668 22.9792 0C22.1251 0.127614 21.5067 0.201237 20.9226 0.314126C14.2269 1.53146 8.2537 5.27177 4.23468 10.7637C2.69351 12.7687 1.43354 14.9749 0.489716 17.3211C0.416092 17.5125 0.141232 17.7481 0.489716 17.9395C0.796493 18.0443 1.1298 18.0417 1.43486 17.932C1.73992 17.8222 1.99858 17.612 2.16833 17.3358C2.99574 15.4813 4.0192 13.7207 5.22124 12.084C5.96376 11.0193 6.81231 10.0326 7.75388 9.1391C6.65839 11.7088 5.90747 14.4122 5.52064 17.1788C5.48137 17.4929 5.17215 17.9984 5.86421 17.9346C6.29123 17.8954 6.92439 18.3076 7.04218 17.3849C7.30144 15.3709 7.79563 13.3941 8.51465 11.495C9.02168 9.98515 9.71763 8.54543 10.5859 7.21017C11.4029 8.93885 12.8604 10.2819 14.6499 10.9551C16.3138 11.5736 17.104 12.3638 16.6132 14.1602C16.4905 14.6118 16.5887 14.9799 17.2464 14.9701C17.9041 14.9602 18.1838 14.8719 18.12 14.1749C18.0906 13.8461 18.2427 13.5025 18.2231 13.1687C18.1838 12.408 18.5029 12.3294 19.1753 12.4816C21.0727 12.8596 22.9987 13.0763 24.9326 13.1295C25.6394 13.1884 25.5265 12.7614 25.5118 12.3638ZM17.1335 9.68882C17.0795 9.98822 16.996 10.3269 16.5396 10.1453C14.7432 9.43359 13.1038 8.52557 12.1222 6.75861C11.7443 6.08619 11.759 5.63954 12.505 5.19289C14.7297 3.83364 17.1498 2.82388 19.6808 2.19888C18.4585 4.55264 17.5997 7.07791 17.1335 9.68882Z" fill="#F3F6F9"/>
</g>
<defs>
<clipPath id="clip0_619_369">
<rect width="50.8049" height="50" fill="white" transform="translate(0.205078)"/>
</clipPath>
</defs>
</svg>
